<?xml version="1.0" encoding="utf-8"?>
<!-- Generator: Adobe Illustrator 28.1.0, SVG Export Plug-In . SVG Version: 6.00 Build 0)  -->
<svg version="1.1" id="Layer_1" xmlns="http://www.w3.org/2000/svg" xmlns:xlink="http://www.w3.org/1999/xlink" x="0px" y="0px"
	 viewBox="0 0 1920 1920" style="enable-background:new 0 0 1920 1920;" xml:space="preserve">
<g>
	<g>
		<path d="M-1142.51,1146.98c-7.59,12.66-15.17,25.31-22.76,37.97c-2.69,4.49-5.24,9.08-8.19,13.4c-0.76,1.11-2.85,2.08-4.17,1.91
			c-4.11-0.53-8.11-1.78-12.21-2.46c-2.57-0.43-3.58-1.62-3.81-4.2c-1.55-17.19-3.21-34.36-4.85-51.54
			c-0.26-2.75-0.58-5.5-1.01-9.57c-1.31,2.11-2.05,3.26-2.76,4.45c-9.18,15.5-18.46,30.95-27.44,46.57
			c-2.05,3.56-3.87,5.3-8.23,3.77c-4.18-1.46-8.66-2.04-13.44-3.1c0.85-1.59,1.5-2.93,2.25-4.2c13.99-23.75,28.08-47.45,41.9-71.3
			c1.84-3.18,3.63-3.88,6.88-2.92c3.09,0.92,6.31,1.41,9.46,2.12c7.52,1.69,7.4,1.71,8.09,9.32c1.53,16.72,3.18,33.43,4.81,50.15
			c0.08,0.86,0.42,1.69,0.86,3.4c1.52-2.51,2.63-4.31,3.71-6.11c8.64-14.4,17.35-28.74,25.83-43.23c1.61-2.74,3.2-3.58,6.22-2.69
			c3.68,1.09,7.45,2.16,11.25,2.51c4.75,0.44,6.18,2.63,6.61,7.28c2.45,26.54,5.28,53.04,7.97,79.55c0.18,1.81,0.24,3.64,0.39,6.03
			c-6.54-1.4-12.67-2.58-18.69-4.16c-0.88-0.23-1.69-2.31-1.82-3.61c-1.89-18.7-3.66-37.41-5.47-56.12
			c-0.1-1.01-0.22-2.02-0.33-3.03C-1141.8,1147.1-1142.15,1147.04-1142.51,1146.98z"/>
		<path d="M-950.44,328.34c-11.13,15.13-22.34,30.21-33.31,45.45c-1.89,2.62-3.5,3.2-6.43,2.05c-5.42-2.12-12.94-2.41-15.88-6.27
			c-2.78-3.66-0.86-10.93-0.91-16.62c-0.19-23.11-0.34-46.22-0.5-69.33c-0.01-1.51,0-3.02,0-5.23c6.47,2.07,12.48,3.82,18.31,6.02
			c0.93,0.35,1.56,2.69,1.57,4.12c0.11,18.03,0.07,36.05,0.07,54.08c0,1.69,0,3.38,0,6.35c1.63-2.01,2.65-3.17,3.56-4.4
			c10.86-14.76,21.77-29.48,32.5-44.34c1.72-2.38,3.16-3.21,6-2.07c4.56,1.82,11.02,1.97,13.42,5.23c2.39,3.24,0.85,9.44,0.87,14.33
			c0.05,16.17,0.02,32.35,0.02,49.89c1.66-2.07,2.66-3.23,3.55-4.45c10.78-14.82,21.61-29.6,32.24-44.53
			c1.96-2.75,3.7-3.42,6.84-2.17c4.39,1.74,8.99,2.97,13.94,4.56c-0.93,1.47-1.59,2.62-2.36,3.69
			c-16.24,22.46-32.53,44.89-48.69,67.41c-1.89,2.63-3.53,3.67-6.77,2.31c-3.81-1.6-7.83-2.82-11.85-3.8
			c-3.55-0.86-4.83-2.48-4.79-6.34c0.16-16.95-0.09-33.89-0.19-50.84c-0.01-1.62,0-3.24,0-4.86
			C-949.64,328.48-950.04,328.41-950.44,328.34z"/>
		<path d="M-1460.55,793.97c-29.8,0.73-58.53,1.43-87.7,2.14c-0.15-2.9-0.4-5.31-0.38-7.72c0.09-15.22-1.21-30.63,0.71-45.62
			c2.86-22.3,20.5-35.88,42.98-35.7c21.4,0.18,38.79,14.54,41.6,36.45C-1461.22,759.95-1461.42,776.67-1460.55,793.97z
			 M-1477.92,774.63c-0.41-8.94-0.16-16.85-1.25-24.57c-1.91-13.55-11.29-21.69-24.68-22.49c-13.16-0.78-24.83,6.08-27.23,18.01
			c-1.93,9.59-1.37,19.69-1.89,29.04C-1514.05,774.63-1496.4,774.63-1477.92,774.63z"/>
		<path d="M-702.58,729.16c29.34,2.08,58.01,4.11,87.2,6.18c-0.95,13.21-1.48,25.97-2.94,38.62c-0.83,7.24-2.19,14.72-5.02,21.38
			c-7.73,18.18-24.78,27-45.14,24.43c-18.39-2.32-33.19-15.43-35.68-34.13c-1.56-11.75-0.29-23.9,0.03-35.86
			C-703.95,743.06-703.14,736.35-702.58,729.16z M-687.71,750.53c-0.39,8.46-1.15,16.27-1.01,24.07
			c0.25,13.32,9.56,23.16,22.76,24.82c14.68,1.84,26.58-5.17,29.71-18.68c1.95-8.42,2.17-17.25,3.21-26.32
			C-651.51,753.1-669.25,751.84-687.71,750.53z"/>
		<path d="M-767.17,1047.98c2,1.59,3.77,3,5.82,4.63c-2.46,2.79-4.46,5.08-6.48,7.35c-1.92,2.16-3.88,4.29-6.11,6.76
			c-2.24-2-4.16-3.71-6.08-5.43c-12.5-11.21-25.11-22.3-37.46-33.68c-7.87-7.25-13.18-15.89-12.01-27.24
			c0.16-1.52,0.43-3.05,0.83-4.52c4.34-16.09,22.93-33.58,39.82-37.16c1.65,4.66,3.32,9.38,5.09,14.36
			c-0.97,0.47-1.72,0.97-2.54,1.21c-8.27,2.41-14.91,7.23-20.27,13.85c-7.71,9.53-6.61,18.1,3.76,26.29
			c0.26-10.05,4.61-17.85,11.8-24.06c7.33-6.33,15.84-9.54,25.57-8.28c15.26,1.98,27.89,15.44,28.55,30.05
			C-736.08,1029.72-746.98,1042.83-767.17,1047.98z M-773.96,1035.65c9.5,0.07,18.6-9.15,18.55-18.78
			c-0.04-8.4-7.51-15.93-15.94-16.08c-9.44-0.17-18.75,9-18.85,18.58C-790.3,1027.85-782.58,1035.59-773.96,1035.65z"/>
		<path d="M-825.5,456.88c-1.6,1.41-3.04,2.7-4.65,4.11c-3.97-4.56-7.95-9.13-12.17-13.96c20.21-20.78,41.57-42.74,63.31-65.09
			c4.25,4.92,8.34,9.65,12.77,14.77c-6.26,6.48-13.44,13.92-20.82,21.56c20.71,5.41,31.58,18.92,29.76,36.44
			c-1.68,16.13-17.84,31.42-33.91,32.09C-808.15,487.5-821.83,475.7-825.5,456.88z M-795.32,468.12
			c9.67-0.16,19.59-10.33,19.44-19.92c-0.14-9.01-8.47-17.02-17.44-16.78c-9.67,0.26-19.54,10.61-19.21,20.12
			C-812.23,460.38-804.05,468.26-795.32,468.12z"/>
		<path d="M-1352.19,1132.6c-5.16-4.15-9.94-8-15.16-12.2c6.63-8.29,13.1-16.37,19.71-24.63c-20.31-2.94-32.85-15.4-33.04-32.43
			c-0.19-16.63,13.9-33.44,30.1-36.13c13.43-2.22,33.59,6.08,37.58,26.46c1.55-1.63,2.94-3.1,4.6-4.83
			c4.67,3.74,9.2,7.36,14.32,11.45C-1313.51,1084.47-1332.82,1108.5-1352.19,1132.6z M-1361.52,1065.15
			c-0.04,8.99,7.69,16.87,16.67,17c9.58,0.14,19.47-9.89,19.54-19.82c0.07-8.9-7.79-16.81-16.8-16.91
			C-1352,1045.31-1361.48,1054.94-1361.52,1065.15z"/>
		<path d="M-1292.72,420.49c5.21,8.8,10.26,17.33,15.48,26.15c-5.68,3.38-11.06,6.57-16.74,9.95
			c-15.67-26.32-31.13-52.31-46.81-78.64c5.41-3.22,10.54-6.26,15.83-9.41c1.32,1.96,2.49,3.7,4.05,6.01
			c2.38-9.38,8.35-15.18,16.32-19.14c7.91-3.94,16.14-4.89,24.63-2.17c15.2,4.87,26.94,23.33,24.69,38.69
			C-1257.88,409.74-1271.29,420.14-1292.72,420.49z M-1291.53,406.75c9.38-0.04,17.23-7.8,17.14-16.94
			c-0.1-10.37-9.53-20.41-18.96-20.19c-9.05,0.21-16.9,8-16.95,16.82C-1310.35,396.8-1301.12,406.79-1291.53,406.75z"/>
		<path d="M-1358,401.83c18.24-0.06,34.26,15.96,34.26,34.28c0.01,19.66-18.97,38.3-38.97,38.27c-18.19-0.02-33.85-15.72-33.92-34
			C-1396.7,420.63-1377.93,401.9-1358,401.83z M-1358.97,456.42c9.16-0.05,17.17-8.11,17.03-17.13
			c-0.15-9.82-10.17-19.7-19.78-19.52c-8.9,0.17-16.7,8.08-16.76,16.99C-1378.54,446.6-1368.75,456.47-1358.97,456.42z"/>
		<path d="M-1464.32,887.51c10.83-4.35,11.97-25.67-4.48-36.17c2.31-4.25,4.64-8.52,7.6-13.96c4.13,3.58,8.51,6.33,11.48,10.16
			c7.66,9.87,11.16,21.33,9.35,33.81c-2.36,16.23-13.88,26.66-30.93,28.85c-13.8,1.78-27.83-6.55-34.24-20.32
			c-9.72-20.88-0.8-42.18,20.28-48.85c3.65-1.16,5.31-0.81,6.58,3.27C-1474.18,858.68-1469.21,872.9-1464.32,887.51z
			 M-1485.3,860.74c-8.01,4.47-10.83,11.64-8.13,19.74c2.79,8.36,9.45,12.49,18.44,11.13
			C-1478.4,881.4-1481.79,871.26-1485.3,860.74z"/>
		<path d="M-689.61,673.19c-2.62,3.85-5.27,7.75-8.56,12.58c-3.12-2.78-6.56-4.94-8.78-7.99c-8.86-12.15-11.63-25.74-7.25-40.22
			c4.33-14.3,18.19-23.4,33.79-22.94c15.31,0.45,28.28,11.34,32.24,27.09c5.67,22.53-7.81,41.72-31.01,43.56
			c-1.92-8.12-3.87-16.31-5.8-24.51c-1.89-8.06-3.76-16.13-5.65-24.27C-703.65,642.28-703.12,659.6-689.61,673.19z M-679.6,633.49
			c2.52,10.73,4.95,21.13,7.41,31.6c8.1-3.28,11.87-10.54,9.99-18.68C-664.2,637.8-670.67,632.8-679.6,633.49z"/>
		<path d="M-720.03,883.25c-1.39-5.4-3.38-10.03-3.64-14.77c-0.65-11.95,2.9-22.88,10.66-32.1c10.52-12.5,27.02-15.38,41.92-7.66
			c14.11,7.32,21.01,23.2,17.03,39.24c-5.6,22.59-26.01,33.44-46.88,24.91c-0.55-0.22-1.03-0.58-1.87-1.07
			c2.33-8,4.62-15.95,6.94-23.89c2.33-7.96,4.7-15.9,7.22-24.41c-5.64-0.54-9.98,1.35-13.21,5.25c-6.65,8.03-8.14,17.03-3.83,27.23
			C-710.02,878.19-714.36,880.39-720.03,883.25z M-677.71,846.74c-3.04,10.37-6.07,20.69-9.13,31.11
			c9.3,0.85,16.07-3.95,18.21-12.48C-666.59,857.24-669.95,850.12-677.71,846.74z"/>
		<path d="M-1476.05,631.81c-3.19,16.56-6.33,32.83-9.47,49.13c13.8,1.28,20.68-15.34,14.03-33.61c4.07-2.52,8.21-5.09,12.47-7.73
			c7.29,9.55,7.32,19.98,5.15,30.68c-3.9,19.25-18.22,31.38-36.21,30.18c-14.23-0.95-24.82-7.9-30.26-21.42
			c-5.45-13.55-1.75-30.8,8.72-40.6C-1501.35,628.85-1489.32,627.8-1476.05,631.81z M-1490.68,647.66
			c-9.46-0.28-15.88,5.44-16.93,14.51c-0.98,8.52,3.18,15.22,10.81,16.9C-1494.78,668.71-1492.77,658.37-1490.68,647.66z"/>
		<path d="M-1410.88,499.67c-4.5,7.25-8.87,14.31-13.24,21.36c-4.35,7.03-8.69,14.06-13.08,21.16c13.39,5.06,25.14-7.36,25.13-26.57
			c4.61-0.93,9.35-1.89,14.37-2.91c2,5.62,1.99,11.11,0.37,16.48c-4.57,15.15-13.24,27.04-29.08,31.43
			c-24.16,6.7-47.43-16.4-41.64-40.82C-1461.48,492.13-1431.47,481.28-1410.88,499.67z M-1430.06,509
			c-8.38-3.6-16.23-0.66-20.83,7.08c-3.72,6.26-2.92,16.52,3.94,20.18C-1441.34,527.22-1435.72,518.15-1430.06,509z"/>
		<path d="M-1186.9,348.77c-15.66,5.6-31.38,11.22-47.15,16.85c5.42,11.23,26.73,10.67,36.23-5.27c4.26,2.24,8.55,4.49,13.62,7.15
			c-2.08,3.09-3.61,6.34-6,8.72c-10.45,10.43-23.32,14.97-37.87,13.01c-15.59-2.1-26.54-13.99-28.57-29.62
			c-1.95-14.99,6.03-28.97,20.27-35.54C-1213.81,313.67-1190.48,325.17-1186.9,348.77z M-1207.59,344.1c-4.88-8.53-13-11-21.62-7.01
			c-7.43,3.44-11.12,10.88-8.5,17.72C-1227.77,351.27-1217.83,347.73-1207.59,344.1z"/>
		<path d="M-832.33,421.45c-14.38-9.31-28.27-18.31-42.29-27.39c-4.9,13.9,7.2,25.63,26.13,25.68c0.82,4.68,1.66,9.45,2.7,15.32
			c-4.73,0-9.09,0.74-13.11-0.13c-15.53-3.37-27.44-11.86-33.27-27.04c-4.83-12.58-1.38-24.04,7.24-33.88
			c8.41-9.6,19.33-13.22,31.72-10.58c14.04,2.99,24.44,11.09,28.91,25.1C-820.41,400.74-824.24,411.5-832.33,421.45z M-868.8,384.25
			c9.31,6.03,18.25,11.84,27.27,17.68c3.57-7.97,1.4-15.45-5.47-20.19C-854.25,376.73-862.11,377.45-868.8,384.25z"/>
		<path d="M-931.48,1114.15c-4.6-1.87-8.98-3.65-14.11-5.73c1.31-2.77,2.27-5.47,3.77-7.82c8.2-12.81,28.55-21.02,43.43-17.52
			c13.7,3.22,21.81,12.38,25.2,25.53c3.48,13.47-0.77,24.97-11.19,34.03c-19.89,17.31-47.88,10.42-56.56-13.81
			c-0.2-0.55-0.26-1.15-0.47-2.1c15.06-7.11,30.05-14.19,45.42-21.45c-3.18-4.9-7.83-6.69-12.97-6.44
			C-919.13,1099.33-926.72,1104.22-931.48,1114.15z M-890.94,1115.5c-9.99,4.73-19.62,9.28-29.36,13.9
			c5.74,7.66,13.33,9.42,21.18,5.35C-891.45,1130.78-888.33,1123.8-890.94,1115.5z"/>
		<path d="M-1302.52,1088.2c14.87,7.75,29.59,15.43,44.34,23.13c4.94-12.84-7.83-23.35-28.35-23.28c-1.21-4.43-2.45-8.98-3.76-13.79
			c5.71-2.94,11.54-2.83,17.22-1.59c10.17,2.23,19.03,7.09,25.92,15.05c10.05,11.62,11.19,26.54,3.2,39.88
			c-7.65,12.77-21.9,18.96-36.48,15.82C-1307.2,1137.67-1318.45,1110.15-1302.52,1088.2z M-1262.94,1121.68
			c-9.76-5.09-19.2-10.02-28.68-14.97c-3.08,7.82-0.25,15.16,7.16,19.44C-1276.59,1130.69-1268.74,1129.21-1262.94,1121.68z"/>
		<path d="M-846.53,1039.85c5.41-3.98,10.35-7.61,15.69-11.55c13.33,18.06,26.47,35.85,39.93,54.07c-4.96,3.66-9.74,7.2-14.77,10.91
			c-1.6-1.88-3.05-3.57-4.79-5.62c-2.27,10.81-8.53,18.02-17.68,22.81c-11.53,6.04-23.51,3.76-32.26-7.02
			c-8.92-10.98-17.06-22.59-25.81-34.28c5.3-3.92,10.33-7.64,15.75-11.65c5.84,7.92,11.55,15.7,17.31,23.44
			c2.11,2.84,4.17,5.76,6.6,8.31c4.75,4.99,9.94,5.81,15.43,2.83c6.55-3.55,10.34-10.17,8.57-16.3c-1.04-3.6-2.91-7.13-5.07-10.22
			C-833.64,1057.03-839.98,1048.72-846.53,1039.85z"/>
		<path d="M-700.39,963.4c-2.92-3.64-5.87-7.34-8.4-10.5c4.25-5.67,8.57-10.81,12.11-16.43c1.62-2.57,2.1-6.07,2.34-9.21
			c0.11-1.44-1.29-3.88-2.54-4.31c-1.51-0.51-4.03,0.1-5.32,1.17c-2.21,1.84-3.82,4.4-5.64,6.68c-3.36,4.21-6.41,8.72-10.11,12.6
			c-5.01,5.26-11.18,7.64-18.44,4.86c-7.44-2.85-12.24-8.25-12.36-16.23c-0.08-5.71,0.88-11.69,2.67-17.13
			c3.97-12.07,13.03-23.31,21.72-28.26c3.03,3.74,6.1,7.53,8.78,10.83c-4.62,5.32-9.4,10.12-13.26,15.57
			c-2.32,3.27-3.66,7.46-4.54,11.43c-0.37,1.66,1.15,4.58,2.67,5.53c1.1,0.69,4.21-0.39,5.43-1.64c2.77-2.84,4.9-6.31,7.35-9.47
			c2.36-3.04,4.59-6.22,7.25-8.98c4.86-5.04,10.64-7.97,17.87-5.73c7.54,2.33,12.4,7.32,14,15.12
			C-676.03,932.87-687.6,956.65-700.39,963.4z"/>
		<path d="M-787.01,495.4c4.7-0.87,9.47-1.75,13.16-2.44c3.32,7.68,6.12,14.93,9.61,21.83c1.39,2.74,4.05,5.06,6.62,6.89
			c1.27,0.9,4.15,0.97,5.37,0.1c1.18-0.83,1.84-3.49,1.51-5.1c-0.58-2.8-2.07-5.42-3.23-8.09c-2.13-4.93-4.71-9.72-6.34-14.82
			c-2.08-6.47-1.63-12.83,3.68-17.96c5.54-5.36,12.22-7.59,19.48-4.92c4.49,1.65,8.94,4.34,12.43,7.61
			c9.09,8.51,14.69,19.13,17.18,32c-5.28,0.98-10.02,1.87-13.75,2.56c-3.24-6.73-5.94-13.03-9.29-18.96
			c-1.36-2.4-3.9-4.42-6.35-5.81c-1.39-0.79-4.24-0.63-5.44,0.34c-1.13,0.92-1.58,3.59-1.2,5.23c0.68,2.95,2.19,5.72,3.4,8.54
			c1.99,4.66,4.35,9.2,5.95,13.99c2.24,6.7,1.67,13.13-3.85,18.3c-5.65,5.29-12.17,6.94-19.6,4.39c-0.44-0.15-0.87-0.3-1.3-0.47
			C-772.64,533.09-787.19,510.88-787.01,495.4z"/>
		<path d="M-1435.41,1011.31c5.09-1.44,9.65-2.72,13.6-3.83c3.38,5.91,6.27,11.64,9.84,16.91c1.74,2.56,4.54,4.66,7.31,6.14
			c1.51,0.8,4.61,0.56,5.77-0.52c1.12-1.04,1.45-4.11,0.76-5.69c-1.89-4.35-4.52-8.37-6.82-12.54c-1.48-2.69-3.07-5.35-4.29-8.16
			c-2.95-6.81-3.27-13.46,2.09-19.39c5.64-6.23,12.59-7.96,20.55-5.51c7.64,2.35,13.36,7.48,18.46,13.35
			c5.92,6.82,10.33,14.5,12.95,23.2c0.77,2.56,0.39,3.98-2.55,4.59c-3.74,0.78-7.38,2.02-9.93,2.74
			c-4.17-7.45-7.77-14.51-12.02-21.14c-1.65-2.57-4.58-4.58-7.35-6.07c-1.32-0.71-4.1-0.19-5.32,0.83
			c-0.99,0.83-1.27,3.46-0.77,4.93c0.93,2.72,2.63,5.19,4.04,7.74c2.53,4.57,5.43,8.97,7.55,13.72c2.95,6.57,3.11,13.17-2.06,18.98
			c-5.53,6.22-12.52,8.75-20.38,6.03c-4.81-1.67-9.52-4.44-13.42-7.73C-1426.15,1032.5-1432.16,1023.1-1435.41,1011.31z"/>
		<path d="M-1483.1,545.02c3.64,4.15,7.05,8.53,10.96,12.41c12.23,12.16,24.6,24.18,37.05,36.11c2.1,2.01,2.68,3.64,1.44,6.31
			c-2.25,4.86-2.93,11.68-6.64,14.28c-3.71,2.6-10.33,1.15-15.69,1.29c-16.93,0.43-33.87,0.78-50.8,1.16c-1.67,0.04-3.34,0-5.75,0
			c2.4-6.07,4.43-11.67,6.91-17.06c0.45-0.97,2.76-1.48,4.23-1.51c13.09-0.24,26.18-0.32,39.26-0.47c1.64-0.02,3.28-0.17,4.92-0.26
			c0.4-0.53,0.8-1.07,1.2-1.6c-1.54-0.96-3.3-1.7-4.58-2.93c-9.33-8.96-18.5-18.08-27.88-26.99c-2.2-2.09-2.96-3.82-1.57-6.76
			c1.97-4.14,3.44-8.53,5.12-12.81C-1484.3,545.8-1483.7,545.41-1483.1,545.02z"/>
		<path d="M-1456.78,956.55c1.62,3.27,3.03,6.11,4.59,9.25c-4.46,2.33-8.66,4.51-13.08,6.82c-1.67-3.01-3.21-5.8-4.96-8.96
			c-4.79,2.42-9.4,4.75-14.47,7.31c-2.99-5.68-5.88-11.18-9.01-17.12c4.77-2.54,9.33-4.96,14.36-7.63
			c-2.47-4.89-4.86-9.61-7.51-14.85c4.41-2.33,8.67-4.59,13.11-6.93c2.68,5.03,5.2,9.75,7.9,14.8c8.56-4.5,16.93-8.66,25.06-13.25
			c5.05-2.84,5.65-7.65,2.01-12.61c-1.17-1.59-2.72-2.89-4.33-4.56c2.94-3.34,5.97-6.78,9.33-10.6c6.24,3.36,9.74,8.83,12.4,14.9
			c5.68,12.91,2.27,23.2-10.07,30.06C-1439.63,947.73-1448.01,951.94-1456.78,956.55z"/>
		<path d="M-684.33,585.14c-8.35,3.41-16.2,6.56-24,9.82c-8.14,3.4-9.41,9.22-3.5,15.88c0.59,0.67,1.54,1.03,2.69,1.78
			c-3.97,3.75-7.3,6.88-11.05,10.42c-8.26-6.71-12.19-15.36-12.35-25.66c-0.15-9.28,5.18-15.27,13.22-18.86
			c8.98-4.01,18.15-7.58,27.61-11.49c-1.22-3.13-2.36-6.08-3.71-9.55c4.55-1.87,9-3.7,13.66-5.61c1.47,3.28,2.76,6.17,4.21,9.4
			c5.1-2.03,9.9-3.94,15.02-5.98c2.47,6.07,4.83,11.85,7.31,17.94c-5.11,2.13-9.9,4.13-15.01,6.26c2.04,5.18,3.99,10.11,6.11,15.48
			c-4.59,1.87-8.95,3.65-13.72,5.6C-680,595.41-682.07,590.51-684.33,585.14z"/>
		<path d="M-1032.17,1212.65c-6.09,0.54-11.56,1.02-17.78,1.57c-3.49-38.83-6.95-77.33-10.47-116.42c6-0.53,11.7-1.03,17.79-1.57
			C-1039.12,1135.21-1035.67,1173.62-1032.17,1212.65z"/>
		<path d="M-1088.46,272.32c6.49,0,12.02,0,17.54,0c0,38.87,0,77.58,0,116.56c-6.38,0-12,0-17.54,0
			C-1088.46,349.99-1088.46,311.39-1088.46,272.32z"/>
		<path d="M-1439.82,435.09c23.85,19.81,47.38,39.36,71.28,59.22c-4.17,5.02-8.15,9.82-12.44,14.99
			c-23.82-19.78-47.43-39.4-71.31-59.24C-1448.03,444.94-1444.03,440.13-1439.82,435.09z"/>
		<path d="M-1141.94,300.08c1.09,5.68,2.15,11.23,3.3,17.25c-1.92,0.4-3.69,0.74-5.44,1.13c-9.84,2.2-14.94,9.48-13.26,19.43
			c1.84,10.92,3.96,21.79,6.05,33.14c-6.3,1.19-12.45,2.35-19.12,3.6c-4.12-22.04-8.18-43.78-12.33-66
			c6.02-1.15,11.85-2.26,18.15-3.46c0.59,2.56,1.11,4.85,1.82,7.94C-1157.64,305.45-1150.78,301.61-1141.94,300.08z"/>
		<path d="M-960.35,1102.5c6.37,21.93,12.49,42.99,18.74,64.49c-6.06,1.78-11.61,3.41-17.63,5.18c-0.88-2.53-1.7-4.91-2.42-6.97
			c-2.78,3-5.23,6.4-8.41,8.84c-3.18,2.44-7.09,3.91-10.96,5.96c-0.77-2.17-1.28-3.43-1.66-4.73c-1.19-4.13-2.33-8.27-3.57-12.66
			c1.81-0.55,3.41-0.99,4.99-1.51c9.71-3.19,13.99-10.48,11.48-20.47c-2.36-9.39-5.24-18.65-7.88-27.97
			c-0.41-1.46-0.78-2.93-1.28-4.77C-972.71,1106.09-966.72,1104.35-960.35,1102.5z"/>
		<path d="M-1403.53,946.52c3.76,5.61,7.18,10.71,10.86,16.2c-18.68,12.5-37.15,24.85-55.89,37.39c-3.7-5.5-7.12-10.6-10.86-16.16
			C-1440.82,971.49-1422.36,959.13-1403.53,946.52z"/>
		<path d="M-695.62,523.17c3.15,5.84,6.06,11.22,9.26,17.14c-19.73,10.67-39.26,21.23-59.13,31.97c-3.13-5.79-6.1-11.26-9.28-17.13
			C-735.04,544.48-715.62,533.98-695.62,523.17z"/>
		<path d="M-772.16,959.82c3.69-5.64,7.06-10.77,10.68-16.3c18.81,12.35,37.41,24.55,56.23,36.9c-3.66,5.58-7.1,10.84-10.68,16.3
			C-734.73,984.38-753.25,972.22-772.16,959.82z"/>
		<path d="M-661.88,523.4c0.02,5.94-4.48,10.53-10.4,10.61c-6.4,0.09-12.12-6.15-12.08-13.18c0.03-5.94,4.62-10.68,10.38-10.7
			C-667.7,510.1-661.9,516.47-661.88,523.4z"/>
		<path d="M-1470.09,1015.1c-6.28-0.09-12.31-6.59-12.26-13.23c0.04-5.74,4.91-10.43,10.74-10.34c6.38,0.09,12.36,6.55,12.21,13.18
			C-1459.53,1010.55-1464.3,1015.19-1470.09,1015.1z"/>
		<path d="M-692.86,987.87c5.8-0.06,10.49,4.58,10.56,10.46c0.08,6.72-5.82,13.15-12.14,13.21c-5.66,0.06-10.46-4.69-10.64-10.5
			C-705.27,994.5-699.19,987.94-692.86,987.87z"/>
	</g>
</g>
</svg>
